<?xml version="1.0" encoding="UTF-8"?>
<svg width="21px" height="21px" viewBox="0 0 21 21" version="1.1" xmlns="http://www.w3.org/2000/svg" xmlns:xlink="http://www.w3.org/1999/xlink">
    <!-- Generator: Sketch 49.3 (51167) - http://www.bohemiancoding.com/sketch -->
    <title>settings icon</title>
    <desc>Created with Sketch.</desc>
    <defs></defs>
    <g id="Page-1" stroke="none" stroke-width="1" fill="none" fill-rule="evenodd">
        <g id="Header-#8" transform="translate(-1077.000000, -102.000000)" fill="#FFFFFF">
            <path d="M1087.50225,117.847828 C1084.55221,117.847828 1082.15213,115.447621 1082.15213,112.497583 C1082.15213,109.547413 1084.55221,107.147206 1087.50225,107.147206 C1090.45242,107.147206 1092.85249,109.547413 1092.85249,112.497583 C1092.85249,115.447621 1090.45242,117.847828 1087.50225,117.847828 M1097.99987,113.487225 L1097.99987,111.512564 C1098.00436,111.186206 1097.776,110.912942 1097.45691,110.859451 L1095.43945,110.517111 L1095.30725,110.09064 C1095.15602,109.602225 1094.96042,109.129791 1094.72572,108.686281 L1094.51598,108.289394 L1095.70572,106.624979 C1095.89406,106.360432 1095.8646,106.003432 1095.63545,105.776658 L1094.23519,104.376262 C1094.10919,104.250394 1093.94357,104.180923 1093.76857,104.180923 C1093.63147,104.180923 1093.50098,104.222923 1093.39096,104.302036 L1091.71942,105.492696 L1091.32358,105.283621 C1090.84957,105.033602 1090.36009,104.832055 1089.86904,104.685187 L1089.43609,104.555621 L1089.09825,102.552828 C1089.04449,102.232545 1088.76977,102.000092 1088.445,102.000092 L1086.47047,102.000092 C1086.1457,102.000092 1085.87085,102.232413 1085.81723,102.5523 L1085.47,104.587451 L1085.04538,104.720055 C1084.56608,104.86996 1084.09615,105.068074 1083.64881,105.308979 L1083.24862,105.524394 L1081.59015,104.330168 C1081.48013,104.251055 1081.34792,104.209055 1081.20779,104.209055 C1081.03055,104.209055 1080.86651,104.276809 1080.74579,104.399772 L1079.338,105.803074 C1079.10885,106.032092 1079.07887,106.390281 1079.26681,106.654168 L1080.46368,108.335621 L1080.25658,108.730658 C1080.02492,109.172847 1079.83249,109.645809 1079.68496,110.13647 L1079.555,110.568621 L1077.55287,110.906206 C1077.23245,110.960092 1077,111.234809 1077,111.559583 L1077,113.534111 C1077,113.858885 1077.23232,114.133602 1077.55234,114.187357 L1079.58762,114.534451 L1079.72023,114.959206 C1079.87,115.438508 1080.06811,115.9083 1080.30902,116.355772 L1080.5243,116.755432 L1079.33523,118.409413 C1079.14781,118.67264 1079.17753,119.029243 1079.40668,119.256149 L1080.80681,120.656545 C1080.93281,120.782413 1081.09857,120.851753 1081.27343,120.851753 C1081.41053,120.851753 1081.54102,120.809885 1081.65091,120.730772 L1083.33579,119.531658 L1083.73096,119.738753 C1084.15228,119.959847 1084.61019,120.148187 1085.09187,120.298357 L1085.51874,120.431489 L1085.85487,122.448413 C1085.90849,122.767904 1086.18321,122.99996 1086.50798,122.99996 L1088.48726,122.99996 C1088.81204,122.99996 1089.08675,122.76764 1089.14051,122.447621 L1089.48272,120.430036 L1089.90919,120.29796 C1090.39734,120.146734 1090.86991,119.951262 1091.31355,119.716564 L1091.71043,119.506696 L1093.37485,120.6963 C1093.48645,120.776734 1093.61906,120.818866 1093.75919,120.818866 C1093.93419,120.818866 1094.09981,120.749526 1094.22568,120.623658 L1095.62357,119.226036 C1095.85325,118.996225 1095.88336,118.63764 1095.69542,118.373489 L1094.50819,116.706564 L1094.71515,116.311526 C1094.96081,115.842262 1095.15655,115.370225 1095.29668,114.908489 L1095.42757,114.47713 L1097.44845,114.140338 C1097.76781,114.086583 1097.99987,113.811998 1097.99987,113.487225" id="settings-icon"></path>
        </g>
    </g>
</svg>